# AST/ASF file generated using VICON BodyLanguage
# -----------------------------------------------
:version 1.10
:name VICON
:units
  mass 1.0
  length 0.45
  angle deg
:documentation
   .ast/.asf automatically generated from VICON data using
   VICON BodyBuilder and BodyLanguage model FoxedUp or BRILLIANT.MOD
:root
   order TX TY TZ RX RY RZ
   axis XYZ
   position 0 0 0  
   orientation 0 0 0 
:bonedata
  begin
     id 1 
     name lhipjoint
     direction 0.700308 -0.549349 0.455834 
     length 2.59063 
     axis 0 0 0  XYZ
  end
  begin
     id 2 
     name lfemur
     direction 0.34202 -0.939693 0  
     length 6.31066  
     axis 0 0 20  XYZ
    dof rx ry rz
    limits (-160.0 20.0)
           (-70.0 70.0)
           (-60.0 70.0)
  end
  begin
     id 3 
     name ltibia
     direction 0.34202 -0.939693 0   
     length 7.36093   
     axis 0 0 20   XYZ
    dof rx
    limits (-10.0 170.0)
  end
  begin
     id 4 
     name lfoot
     direction 0.0905332 -0.248738 0.96433   
     length 2.0233   
     axis -90 7.62852e-016 20   XYZ
    dof rx rz
    limits (-45.0 90.0)
           (-70.0 20.0)
  end
  begin
     id 5 
     name ltoes
     direction 1.53573e-011 -4.21855e-011 1   
     length 1.01524   
     axis -90 7.62852e-016 20   XYZ
    dof rx
    limits (-90.0 20.0)
  end
  begin
     id 6 
     name rhipjoint
     direction -0.61416 -0.607328 0.503944   
     length 2.34332  
     axis 0 0 0  XYZ 
  end
  begin
     id 7 
     name rfemur
     direction -0.34202 -0.939693 0   
     length 6.58548   
     axis 0 0 -20   XYZ
    dof rx ry rz
    limits (-160.0 20.0)
           (-70.0 70.0)
           (-70.0 60.0)
  end
  begin
     id 8 
     name rtibia
     direction -0.34202 -0.939693 0   
     length 7.20707   
     axis 0 0 -20   XYZ
    dof rx
    limits (-10.0 170.0)
 end
 begin
     id 9 
     name rfoot
     direction -0.136772 -0.375778 0.916561   
     length 1.92184  
     axis -90 -7.62852e-016 -20   XYZ
    dof rx rz
    limits (-45.0 90.0)
           (-20.0 70.0)
  end
  begin
     id 10 
     name rtoes
     direction -1.53535e-011 -4.21828e-011 1   
     length 0.951089   
     axis -90 -7.62852e-016 -20   XYZ
    dof rx
    limits (-90.0 20.0)
  end
  begin
     id 11 
     name lowerback
     direction -0.0444974 0.988086 -0.147332   
     length 1.9609   
     axis 0 0 0   XYZ
    dof rx ry rz
    limits (-20.0 45.0)
           (-30.0 30.0)
           (-30.0 30.0)
  end
  begin
     id 12 
     name upperback
     direction 0.00613146 0.999513 0.0306081   
     length 1.94944   
     axis 0 0 0   XYZ
    dof rx ry rz
    limits (-20.0 45.0)
           (-30.0 30.0)
           (-30.0 30.0)
  end
  begin
     id 13 
     name thorax
     direction 0.0254621 0.994518 0.101418   
     length 2.0119   
     axis 0 0 0   XYZ
    dof rx ry rz
    limits (-20.0 45.0)
           (-30.0 30.0)
           (-30.0 30.0)
  end
  begin
     id 14 
     name lowerneck
     direction 0.0168698 0.977854 0.208608   
     length 1.6375   
     axis 0 0 0   XYZ
    dof rx ry rz
    limits (-20.0 45.0)
           (-30.0 30.0)
           (-30.0 30.0)
  end
  begin
     id 15 
     name upperneck
     direction -0.0283988 0.989338 -0.142843   
     length 1.6851   
     axis 0 0 0   XYZ
    dof rx ry rz
    limits (-20.0 45.0)
           (-30.0 30.0)
           (-30.0 30.0)
  end
  begin
     id 16
     name head
     direction -0.0129422 0.99741 -0.0707489  
     length 1.69029  
     axis 0 0 0   XYZ
    dof rx ry rz
    limits (-20.0 45.0)
           (-30.0 30.0)
           (-30.0 30.0)
  end
  begin
     id 17 
     name lclavicle
     direction 0.820295 0.564628 -0.0911715  
     length 3.16484  
     axis 0 0 0   XYZ
    dof ry rz
    limits (-20.0 10.0)
           (0.0 20.0)
  end
  begin
     id 18 
     name lhumerus
     direction 1 -4.48969e-011 1.00186e-027   
     length 5.17853   
     axis 180 -30 -90   XYZ
    dof rx ry rz
    limits (-60.0 90.0)
           (-90.0 90.0)
           (-90.0 90.0)
  end
  begin
     id 19
     name lradius
     direction 1 -4.48966e-011 -1.52922e-027   
     length 3.40399   
     axis 180 -30 -90   XYZ
    dof rx
    limits (-10.0 170.0)
  end
  begin
     id 20
     name lwrist
     direction 1 -4.48981e-011 -3.80893e-027   
     length 1.70199   
     axis 1.1049e-015 90 90   XYZ
    dof ry
    limits (-180.0 0.0)
 end
  begin
     id 21 
     name lhand
     direction 1 -4.48957e-011 -7.61786e-027   
     length 0.708964   
     axis 4.86085e-015 90 90   XYZ
    dof rx rz
    limits (-90.0 90.0)
           (-45.0 45.0)
  end
  begin
     id 22 
     name lfingers
     direction 1 -4.48929e-011 -1.52357e-026   
     length 0.571585   
     axis 9.7217e-015 90 90   XYZ
    dof rx
    limits (0.0 90.0)
  end
  begin
     id 23
     name lthumb
     direction 0.707107 -6.34905e-011 0.707107   
     length 0.820685   
     axis -90 45 2.85299e-015   XYZ
    dof rx rz
    limits (-45.0 45.0)
           (-45.0 45.0)
  end
  begin
     id 24 
     name rclavicle
     direction -0.858602 0.463947 -0.218075   
     length 3.35137  
     axis 0 0 0   XYZ 
    dof ry rz
    limits (-10.0 20.0)
           (-20.0 0.0)
  end
  begin
     id 25 
     name rhumerus
     direction -1 -4.48969e-011 -1.98511e-027  
     length 5.42351   
     axis 180 30 90   XYZ
    dof rx ry rz
    limits (-90.0 60.0)
           (-90.0 90.0)
           (-90.0 90.0)
  end
  begin
     id 26 
     name rradius
     direction -1 -4.48961e-011 -2.82624e-027   
     length 3.42066   
     axis 180 30 90   XYZ
    dof rx
    limits (-10.0 170.0)
  end
  begin
     id 27 
     name rwrist
     direction -1 -4.48966e-011 -3.80893e-027   
     length 1.71033   
     axis 1.1049e-015 -90 -90   XYZ
    dof ry
    limits (-180.0 0.0)
  end
  begin
     id 28
     name rhand
     direction -1 -4.48964e-011 -7.61786e-027   
     length 0.743608   
     axis 4.86085e-015 -90 -90   XYZ
    dof rx rz
    limits (-90.0 90.0)
           (-45.0 45.0)
  end
  begin
     id 29
     name rfingers
     direction -1 -4.48961e-011 -1.52357e-026   
     length 0.599516   
     axis 9.7217e-015 -90 -90   XYZ
    dof rx
    limits (0.0 90.0)
  end
  begin
     id 30
     name rthumb
     direction -0.707107 -6.34913e-011 0.707107   
     length 0.860789   
     axis -90 -45 -2.85299e-015   XYZ
    dof rx rz
    limits (-45.0 45.0)
           (-45.0 45.0)
  end
:hierarchy
  begin
    root lhipjoint rhipjoint lowerback
    lhipjoint lfemur
    lfemur ltibia
    ltibia lfoot
    lfoot ltoes
    rhipjoint rfemur
    rfemur rtibia
    rtibia rfoot
    rfoot rtoes
    lowerback upperback
    upperback thorax
    thorax lowerneck lclavicle rclavicle
    lowerneck upperneck
    upperneck head
    lclavicle lhumerus
    lhumerus lradius
    lradius lwrist
    lwrist lhand lthumb
    lhand lfingers
    rclavicle rhumerus
    rhumerus rradius
    rradius rwrist
    rwrist rhand rthumb
    rhand rfingers
  end

#!OML:ASF E:\mmandel\Project 1\Capture day 1\Session 2\Subject.ASF
:FULLY-SPECIFIED
:DEGREES
364
root 12.977 9.24397 0.0457856 189.936 80.7515 135.998
lowerback 33.7037 -3.2101 -14.3845
upperback 2.69861 -8.84699 -0.157635
thorax -12.0188 -3.06628 10.7651
lowerneck -20.4255 0.260198 3.18612
upperneck -13.3204 0.577691 -0.436223
head -0.951072 0.591581 -0.646276
rclavicle -8.26944e-014 -3.81667e-014
rhumerus 22.7102 43.5365 -83.3919
rradius 40.9595
rwrist -37.6715
rhand -30.8714 32.6518
rfingers 7.12502
rthumb -4.15899 2.71263
lclavicle -8.26944e-014 -3.81667e-014
lhumerus 72.6402 18.5515 74.3733
lradius 12.4922
lwrist -28.9495
lhand -19.0715 321.758
lfingers 7.12502
lthumb 7.23617 -8.38524
rfemur -59.6072 -28.9026 19.0689
rtibia 120.671
rfoot -29.2339 -5.77183
rtoes -2.72671
lfemur -102.436 54.863 -23.6008
ltibia 113.786
lfoot -26.3531 -19.1015
ltoes -33.1659
365
root 12.9065 9.25109 0.040986 189.484 80.1762 136.081
lowerback 34.1896 -3.39878 -14.2472
upperback 3.01397 -8.99503 0.145791
thorax -11.7939 -3.16448 11.0818
lowerneck -21.9343 0.271405 2.77433
upperneck -12.528 0.642987 -0.36151
head -0.465667 0.653387 -0.545535
rclavicle -3.81667e-014 4.85035e-014
rhumerus 24.6016 43.8191 -81.7664
rradius 40.6021
rwrist -37.5677
rhand -30.4903 31.3565
rfingers 7.12502
rthumb -3.79094 1.41043
lclavicle -3.81667e-014 4.85035e-014
lhumerus 73.6459 19.3342 75.6052
lradius 12.3979
lwrist -30.5247
lhand -17.4886 322.57
lfingers 7.12502
lthumb 8.7639 -7.63177
rfemur -59.3267 -30.054 18.7273
rtibia 121.139
rfoot -28.9761 -5.17831
rtoes 0.234294
lfemur -102.216 54.1925 -23.288
ltibia 113.898
lfoot -27.208 -18.3119
ltoes -35.4808
366
root 12.8301 9.25171 0.0429282 188.625 80.0111 135.555
lowerback 34.1031 -3.4405 -14.0592
upperback 3.123 -8.95226 0.0867401
thorax -11.6826 -3.16944 10.8896
lowerneck -21.7294 0.230563 2.816
upperneck -12.5149 0.572187 -0.448699
head -0.491621 0.609738 -0.584832
rclavicle 6.04305e-014 -2.94201e-014
rhumerus 25.5088 43.6478 -81.1168
rradius 40.0248
rwrist -37.1788
rhand -30.7267 31.0771
rfingers 7.12502
rthumb -4.01924 1.13526
lclavicle 6.04305e-014 -2.94201e-014
lhumerus 73.2955 18.9698 74.1889
lradius 12.561
lwrist -29.8855
lhand -16.2653 323.39
lfingers 7.12502
lthumb 9.94419 -6.86493
rfemur -59.5909 -30.81 18.4545
rtibia 121.745
rfoot -29.4911 -4.77214
rtoes -1.86044
lfemur -102.478 53.9995 -23.3651
ltibia 114.074
lfoot -27.0145 -18.5883
ltoes -35.0834
367
root 12.7421 9.24567 0.0404063 187.767 79.8506 135.035
lowerback 34.0075 -3.50439 -13.8969
upperback 3.04915 -8.99476 -0.0624936
thorax -11.7667 -3.18555 10.6597
lowerneck -20.357 0.203733 3.15566
upperneck -12.9898 0.47273 -0.602432
head -0.851462 0.526121 -0.698625
rclavicle 3.18055e-015 3.97569e-014
rhumerus 25.6834 43.514 -81.3049
rradius 39.2263
rwrist -36.6651
rhand -31.3364 31.4767
rfingers 7.12502
rthumb -4.60801 1.54683
lclavicle 3.18055e-015 3.97569e-014
lhumerus 72.2531 18.2412 71.5007
lradius 12.5899
lwrist -28.0497
lhand -15.0966 324.189
lfingers 7.12502
lthumb 11.0716 -6.12298
rfemur -59.9577 -31.6139 18.1247
rtibia 122.442
rfoot -29.396 -4.23899
rtoes -1.36452
lfemur -102.925 53.8234 -23.4978
ltibia 114.382
lfoot -26.3091 -19.3942
ltoes -33.5354
368
root 12.6848 9.2613 0.0435207 186.836 79.6395 134.655
lowerback 34.0839 -3.71479 -13.8233
upperback 3.1237 -9.2117 0.0724477
thorax -11.6515 -3.30024 10.8413
lowerneck -20.1805 0.0686563 2.22362
upperneck -12.9306 0.494786 -0.0928953
head -0.860707 0.575483 -0.3787
rclavicle -5.08889e-014 -5.56597e-014
rhumerus 26.4566 44.0143 -80.8725
rradius 38.5077
rwrist -36.3189
rhand -31.6441 31.2824
rfingers 7.12502
rthumb -4.90511 1.35914
lclavicle -5.08889e-014 -5.56597e-014
lhumerus 71.1542 18.1646 68.9135
lradius 12.6666
lwrist -25.2982
lhand -13.9179 324.997
lfingers 7.12502
lthumb 12.2083 -5.37974
rfemur -59.6944 -31.8496 17.8084
rtibia 122.78
rfoot -29.0192 -4.07293
rtoes 0.753734
lfemur -102.461 53.7182 -23.1756
ltibia 114.409
lfoot -25.6511 -20.5113
ltoes -31.6228
369
root 12.6184 9.26658 0.037796 186.457 79.2608 134.686
lowerback 34.1661 -3.75173 -13.461
upperback 3.33785 -9.0884 0.102261
thorax -11.5232 -3.27777 10.6348
lowerneck -20.691 -0.115635 2.27454
upperneck -12.6306 0.220083 -0.215888
head -0.688909 0.435225 -0.439346
rclavicle 6.04305e-014 -1.51076e-014
rhumerus 27.2927 43.1029 -80.5673
rradius 37.896
rwrist -36.0659
rhand -31.2934 30.7558
rfingers 7.12502
rthumb -4.56644 0.825048
lclavicle 6.04305e-014 -1.51076e-014
lhumerus 70.3627 17.0113 66.0923
lradius 13.0012
lwrist -21.5963
lhand -13.4547 325.671
lfingers 7.12502
lthumb 12.6549 -4.73228
rfemur -59.7518 -32.671 17.5721
rtibia 123.23
rfoot -28.7188 -4.13067
rtoes 0.434658
lfemur -102.446 53.3865 -22.9681
ltibia 114.58
lfoot -25.2609 -21.2746
ltoes -30.6597
370
root 12.5423 9.26181 0.0279579 186.081 78.8638 134.693
lowerback 34.2706 -3.9012 -13.1513
upperback 3.53739 -9.12367 0.193132
thorax -11.3651 -3.32603 10.5773
lowerneck -21.6023 -0.0555326 2.28311
upperneck -12.0552 0.269062 -0.444947
head -0.360523 0.459741 -0.510673
rclavicle -3.65764e-014 3.89618e-014
rhumerus 28.2656 42.421 -80.2631
rradius 37.4374
rwrist -36.1201
rhand -30.6909 29.9513
rfingers 7.12502
rthumb -3.98468 0.00876821
lclavicle -3.65764e-014 3.89618e-014
lhumerus 69.5077 16.2847 63.7553
lradius 13.2814
lwrist -18.6226
lhand -14.3125 325.562
lfingers 7.12502
lthumb 11.8278 -4.79222
rfemur -59.8781 -34.069 17.1911
rtibia 123.756
rfoot -28.5969 -3.91253
rtoes -0.80206
lfemur -102.748 52.9768 -22.8668
ltibia 114.862
lfoot -25.4052 -21.3709
ltoes -31.5293
371
root 12.4748 9.26189 0.0166087 185.154 78.3837 134.364
lowerback 34.5195 -4.08871 -12.7629
upperback 3.39612 -9.2747 0.190607
thorax -11.6572 -3.37351 10.4679
lowerneck -20.6208 -0.0520702 2.03142
upperneck -12.1028 0.311477 -0.457884
head -0.521448 0.472885 -0.46978
rclavicle -4.45278e-014 4.53229e-014
rhumerus 27.88 41.8316 -80.9058
rradius 36.9178
rwrist -36.0263
rhand -30.2704 29.0801
rfingers 7.12502
rthumb -3.57859 -0.869587
lclavicle -4.45278e-014 4.53229e-014
lhumerus 67.9941 15.2034 61.6025
lradius 13.4776
lwrist -16.0949
lhand -15.7395 324.692
lfingers 7.12502
lthumb 10.4514 -5.58731
rfemur -59.3557 -35.5229 16.4336
rtibia 124.132
rfoot -28.6916 -3.31117
rtoes -1.59817
lfemur -102.514 52.4777 -22.5332
ltibia 115.071
lfoot -25.3226 -21.6637
ltoes -31.4774
372
root 12.417 9.27344 0.00665133 184.279 77.8098 134.371
lowerback 35.3907 -4.04985 -12.3932
upperback 3.37413 -9.17854 0.225401
thorax -12.106 -3.28473 10.3586
lowerneck -20.1908 -0.0211183 2.72415
upperneck -12.1276 0.176706 -1.12973
head -0.591149 0.360808 -0.808327
rclavicle 1.1609e-013 -8.74653e-015
rhumerus 27.6148 40.69 -81.405
rradius 36.3131
rwrist -35.6877
rhand -30.0299 28.6126
rfingers 7.12502
rthumb -3.34635 -1.34093
lclavicle 1.1609e-013 -8.74653e-015
lhumerus 67.2713 13.8371 60.1582
lradius 13.5945
lwrist -14.0362
lhand -17.1782 323.455
lfingers 7.12502
lthumb 9.06338 -6.75996
rfemur -58.2059 -36.8715 15.4881
rtibia 124.328
rfoot -29.2005 -2.79227
rtoes -4.38123
lfemur -101.626 51.9778 -21.809
ltibia 115.152
lfoot -25.1793 -22.1955
ltoes -31.1116
